<svg id="Group_3629" data-name="Group 3629" xmlns="http://www.w3.org/2000/svg" width="40.747" height="40.747" viewBox="0 0 40.747 40.747">
  <path id="Path_50" data-name="Path 50" d="M83.31,96.326a20.374,20.374,0,1,1,20.373-20.374A20.4,20.4,0,0,1,83.31,96.326Zm0-39.116a18.742,18.742,0,1,0,18.742,18.742A18.763,18.763,0,0,0,83.31,57.21Z" transform="translate(-62.937 -55.579)" fill="#fff"/>
  <path id="Path_51" data-name="Path 51" d="M96.822,79.254c.072-.071.315-.236,1.023-.236a7.6,7.6,0,0,1,1.273.116l.7.121.6-3.381-.7-.131c-2.246-.424-4.046-.275-5.138.422A3.66,3.66,0,0,0,93.1,77.95a6.634,6.634,0,0,0-.3,2.264v.715h-2.09v3.2h2.09v9.856h3.782V84.129h2.722v-3.2H96.587V80.4C96.587,79.531,96.783,79.292,96.822,79.254Z" transform="translate(-75.195 -64.372)" fill="#fff"/>
</svg>
