<svg id="Group_3631" data-name="Group 3631" xmlns="http://www.w3.org/2000/svg" width="40.747" height="40.747" viewBox="0 0 40.747 40.747">
  <g id="Group_15" data-name="Group 15" transform="translate(0 0)">
    <path id="Path_56" data-name="Path 56" d="M83.31,288.113a20.374,20.374,0,1,1,20.373-20.374A20.4,20.4,0,0,1,83.31,288.113Zm0-39.116a18.742,18.742,0,1,0,18.742,18.742A18.763,18.763,0,0,0,83.31,249Z" transform="translate(-62.937 -247.366)" fill="#fff"/>
  </g>
  <g id="Group_16" data-name="Group 16" transform="translate(12.336 12.985)">
    <path id="Path_57" data-name="Path 57" d="M97.847,270.606H88.26a3.248,3.248,0,0,0-3.244,3.245v9.111a3.248,3.248,0,0,0,3.244,3.244h9.587a3.248,3.248,0,0,0,3.244-3.244V273.85A3.248,3.248,0,0,0,97.847,270.606Zm1.826,12.356a1.828,1.828,0,0,1-1.826,1.826H88.26a1.828,1.828,0,0,1-1.826-1.826V273.85a1.828,1.828,0,0,1,1.826-1.826h9.587a1.828,1.828,0,0,1,1.826,1.826Z" transform="translate(-85.016 -270.606)" fill="#fff"/>
    <path id="Path_58" data-name="Path 58" d="M95.956,276.76a4.362,4.362,0,1,0,4.361,4.362A4.366,4.366,0,0,0,95.956,276.76Zm0,7.3a2.943,2.943,0,1,1,2.943-2.943A2.946,2.946,0,0,1,95.956,284.065Z" transform="translate(-87.919 -273.322)" fill="#fff"/>
    <path id="Path_59" data-name="Path 59" d="M106.584,275.167a.739.739,0,1,0,.739.739A.739.739,0,0,0,106.584,275.167Z" transform="translate(-94.207 -272.619)" fill="#fff"/>
  </g>
</svg>
