<svg id="Group_3632" data-name="Group 3632" xmlns="http://www.w3.org/2000/svg" width="40.747" height="40.747" viewBox="0 0 40.747 40.747">
  <g id="Group_19" data-name="Group 19" transform="translate(13.825 11.028)">
    <g id="Group_18" data-name="Group 18" transform="translate(0 0)">
      <path id="Path_60" data-name="Path 60" d="M1278.918,537.758a3.5,3.5,0,0,0-2.31-.812,3.542,3.542,0,0,0-1.5.365v-.222a.525.525,0,0,0-.524-.525h-2.75a.525.525,0,0,0-.524.525v10.228a.525.525,0,0,0,.524.525h2.8a.47.47,0,0,0,.47-.47v-6.119a.959.959,0,1,1,1.918,0v6.119a.47.47,0,0,0,.47.47h2.675a.47.47,0,0,0,.47-.47V541.44A4.783,4.783,0,0,0,1278.918,537.758Z" transform="translate(-1266.368 -531.82)" fill="#fff"/>
      <path id="Path_61" data-name="Path 61" d="M1191.94,536.563h-2.7a.55.55,0,0,0-.549.549v10.179a.55.55,0,0,0,.549.549h2.7a.55.55,0,0,0,.549-.549V537.112A.55.55,0,0,0,1191.94,536.563Z" transform="translate(-1188.674 -531.818)" fill="#fff"/>
      <path id="Path_62" data-name="Path 62" d="M1190.343,456.96a1.915,1.915,0,1,0,1.915,1.915A1.917,1.917,0,0,0,1190.343,456.96Z" transform="translate(-1188.428 -456.96)" fill="#fff"/>
    </g>
  </g>
  <path id="Path_54" data-name="Path 54" d="M280.15,55.579a20.374,20.374,0,1,0,20.373,20.373A20.4,20.4,0,0,0,280.15,55.579Zm0,39.116a18.742,18.742,0,1,1,18.742-18.742A18.764,18.764,0,0,1,280.15,94.695Z" transform="translate(-259.776 -55.579)" fill="#fff"/>
</svg>
