<svg xmlns="http://www.w3.org/2000/svg" width="119.426" height="117.412" viewBox="0 0 119.426 117.412">
  <path id="Path_243" data-name="Path 243" d="M43.513,95.464A28,28,0,0,1,28.2,75.494l10.111-.733L17.546,49.606,1.792,77.408l9.273-.672a37.391,37.391,0,0,0,19.514,23.829,36.979,36.979,0,0,0,38.267-3.584m-22.6-70.9a28.01,28.01,0,0,1,25.142-1.183l-5.168,8.721,32.5-2.693L84.887,2.117l-4.741,8a37.405,37.405,0,0,0-30.7,2.424,36.978,36.978,0,0,0-18.9,33.47M107.3,69.062A28,28,0,0,1,94.7,90.845L90.16,81.781l-15.32,28.79,31.71,3.947-4.164-8.315a37.387,37.387,0,0,0,14.571-27.132,36.986,36.986,0,0,0-17.925-34" transform="translate(0.895 1.059)" fill="none" stroke="#fff" stroke-width="3"/>
</svg>
