<svg xmlns="http://www.w3.org/2000/svg" xmlns:xlink="http://www.w3.org/1999/xlink" width="40.747" height="40.747" viewBox="0 0 40.747 40.747">
  <defs>
    <clipPath id="clip-path">
      <rect id="Rectangle_85" data-name="Rectangle 85" width="20.764" height="18.75" fill="none"/>
    </clipPath>
  </defs>
  <g id="Group_3633" data-name="Group 3633" transform="translate(-125.873 -8349.554)">
    <path id="Path_53" data-name="Path 53" d="M181.408,55.579a20.374,20.374,0,1,0,20.373,20.373A20.4,20.4,0,0,0,181.408,55.579Zm0,39.116A18.742,18.742,0,1,1,200.15,75.952,18.763,18.763,0,0,1,181.408,94.695Z" transform="translate(-35.162 8293.975)" fill="#fff"/>
    <g id="Group_173" data-name="Group 173" transform="translate(136.172 8360.796)">
      <g id="Group_172" data-name="Group 172" transform="translate(0 0)" clip-path="url(#clip-path)">
        <path id="Path_146" data-name="Path 146" d="M20.758,18.522c-.027-.005-.056-.005-.069-.019-.1-.1-.2-.2-.287-.312-.187-.233-.366-.469-.55-.7-.164-.213-.331-.423-.5-.634-.118-.152-.241-.3-.359-.452-.162-.206-.32-.412-.482-.617s-.347-.44-.521-.658c-.2-.253-.408-.5-.611-.757s-.38-.479-.57-.717c-.135-.169-.273-.334-.406-.5-.18-.231-.358-.464-.541-.695s-.38-.471-.568-.707-.385-.491-.579-.735l-.425-.54c-.143-.182-.287-.366-.433-.546s-.3-.358-.449-.541c-.241-.3-.474-.614-.715-.918-.224-.282-.455-.56-.681-.842a.192.192,0,0,1,.024-.3c.11-.116.219-.233.329-.351.273-.3.545-.592.818-.887.174-.189.349-.378.521-.567.309-.337.616-.676.924-1.014.267-.292.535-.58.8-.87.326-.354.648-.708.972-1.063.145-.159.288-.319.433-.479.307-.337.614-.678.924-1.012.182-.2.373-.391.56-.587.015-.015.024-.035.039-.051.115-.12.229-.238.346-.354.024-.025.049-.049.074-.073A.345.345,0,0,0,18.664,0c-.157.019-.314.057-.471.062-.287.01-.575,0-.864.005a.21.21,0,0,0-.138.046c-.125.121-.243.251-.361.38-.24.26-.474.523-.715.781-.194.209-.4.408-.59.617-.174.187-.336.385-.508.572-.272.3-.545.592-.818.887l-.521.568-.794.862-.57.616q-.458.491-.914.983c-.191.206-.209.153-.4-.039v-.01c-.15-.192-.3-.383-.45-.573-.167-.213-.336-.422-.5-.633-.207-.261-.413-.525-.621-.788l-.4-.514c-.138-.177-.277-.354-.417-.53-.221-.277-.447-.548-.666-.826-.255-.324-.5-.654-.756-.98-.273-.353-.55-.7-.826-1.054a.309.309,0,0,0-.282-.14c-.2.019-.4.037-.594.046C4.843.364,4.2.327,3.552.374,2.832.426,2.107.4,1.383.408c-.177,0-.356,0-.533,0C.826.408.8.4.783.41A.06.06,0,0,0,.771.467c.12.155.246.307.368.462.231.3.46.594.69.894.2.27.4.543.611.813.12.157.25.3.368.462.159.213.307.433.467.644.189.253.386.5.579.749.17.224.334.452.5.676.214.278.435.553.649.832.234.307.466.617.7.926.194.256.391.511.585.767.18.238.358.481.538.719.2.256.393.511.589.767.175.229.349.46.528.688a.192.192,0,0,1,0,.28l-.842.911c-.2.219-.408.437-.611.656-.282.3-.562.607-.843.909-.209.228-.423.452-.633.68-.234.255-.466.511-.7.767l-.779.845c-.285.31-.573.619-.859.928q-.377.41-.754.823c-.27.292-.538.587-.811.877-.314.334-.631.663-.946.993-.047.049-.1.1-.145.145A.318.318,0,0,0,0,18.721c.019.01.037.027.056.027.113,0,.224,0,.337,0,.337,0,.673,0,1.01,0a.474.474,0,0,0,.386-.167c.192-.238.395-.466.6-.693.255-.283.513-.56.771-.84.2-.214.4-.425.594-.639s.368-.417.555-.621c.28-.309.567-.612.848-.919.148-.162.3-.326.442-.487q.5-.544,1-1.086c.207-.228.412-.459.619-.685.332-.366.67-.73,1-1.095.1-.115.2-.236.307-.349.159-.172.258-.231.4,0a3.663,3.663,0,0,0,.231.3q.243.319.486.639c.207.277.413.555.621.832s.418.553.627.83c.138.186.277.371.417.555.216.278.437.552.649.832.2.258.385.521.579.781s.4.538.6.806.412.55.617.823c.218.288.444.57.651.867a.447.447,0,0,0,.417.234c1-.027,2,0,3-.04.945-.044,1.893-.01,2.837-.008.035,0,.071.013.1.015a.736.736,0,0,0-.005-.108m-2.684-1.189a.13.13,0,0,1-.194.057c-.022-.013-.059,0-.089,0-.8,0-1.6-.005-2.393.005a.483.483,0,0,1-.413-.213c-.3-.38-.585-.762-.875-1.145-.2-.265-.393-.535-.594-.8-.283-.371-.573-.737-.859-1.11-.2-.263-.393-.533-.594-.8-.246-.319-.5-.633-.746-.951-.17-.223-.329-.455-.5-.678s-.349-.437-.52-.66c-.246-.324-.486-.654-.732-.978-.147-.194-.305-.38-.455-.572C8.923,9.248,8.739,9,8.55,8.759c-.2-.258-.4-.514-.6-.771-.153-.2-.305-.4-.457-.594-.2-.256-.391-.511-.585-.767s-.4-.54-.6-.806-.4-.506-.6-.761c-.219-.283-.432-.572-.651-.853-.246-.319-.5-.633-.744-.951s-.469-.624-.708-.933c-.169-.216-.347-.423-.52-.636a.427.427,0,0,1-.086-.135c-.01-.037-.007-.11.017-.123a.566.566,0,0,1,.2-.064c.037-.007.078.019.116.019.3,0,.6,0,.9,0,.216,0,.433-.013.649-.022.17-.007.341-.019.513-.022a.531.531,0,0,1,.513.27,7.8,7.8,0,0,0,.53.678c.118.152.229.307.346.459.165.213.334.422.5.634.25.324.5.649.747.972.189.241.386.476.577.715s.368.476.552.713.359.464.54.695q.3.382.6.764c.159.2.32.4.479.607.307.395.609.793.916,1.186.238.3.484.6.72.9.277.354.545.713.82,1.068.194.246.4.484.592.73s.386.508.582.757c.159.2.326.4.486.606.132.164.256.332.386.5l.417.531c.184.234.364.471.55.7s.393.487.589.73c.135.187.27.349.4.514.18.231.358.466.538.7.089.111.184.219.282.326a.219.219,0,0,1,.04.236" transform="translate(0 0)" fill="#fff"/>
      </g>
    </g>
  </g>
</svg>
