<svg id="Group_3630" data-name="Group 3630" xmlns="http://www.w3.org/2000/svg" width="40.747" height="40.747" viewBox="0 0 40.747 40.747">
  <path id="Path_54" data-name="Path 54" d="M280.15,55.579a20.374,20.374,0,1,0,20.373,20.373A20.4,20.4,0,0,0,280.15,55.579Zm0,39.116a18.742,18.742,0,1,1,18.742-18.742A18.764,18.764,0,0,1,280.15,94.695Z" transform="translate(-259.776 -55.579)" fill="#fff"/>
  <path id="Path_55" data-name="Path 55" d="M296.273,80.807h-12.3a2.535,2.535,0,0,0-2.534,2.535v7.486a2.535,2.535,0,0,0,2.534,2.534h12.3a2.535,2.535,0,0,0,2.535-2.534V83.342A2.535,2.535,0,0,0,296.273,80.807Zm-1.324,6.309a.865.865,0,0,1-.161.481,3.066,3.066,0,0,1-.62.437l-5.489,2.949a.958.958,0,0,1-.382.083.91.91,0,0,1-.8-.463.876.876,0,0,1-.111-.427l0-.336,0-3.241,0-2.278,0-.332a.873.873,0,0,1,.112-.427.929.929,0,0,1,1.153-.39s4.877,2.624,5.439,2.925a3,3,0,0,1,.694.472.86.86,0,0,1,.161.5Z" transform="translate(-269.333 -66.711)" fill="#fff"/>
</svg>
